<?xml version="1.0" standalone="no"?>
<!DOCTYPE svg PUBLIC "-//W3C//DTD SVG 20010904//EN"
 "http://www.w3.org/TR/2001/REC-SVG-20010904/DTD/svg10.dtd">
<svg version="1.0" xmlns="http://www.w3.org/2000/svg"
 width="814.000000pt" height="813.000000pt" viewBox="0 0 814.000000 813.000000"
 preserveAspectRatio="xMidYMid meet">
<metadata>
warpstorm.com
</metadata>
<g transform="translate(0.000000,813.000000) scale(0.100000,-0.100000)"
fill="#000000" stroke="none">
<path d="M7880 7877 c-43 -40 -95 -85 -375 -326 -66 -57 -169 -148 -230 -201
-592 -526 -1400 -1229 -1405 -1223 -4 4 -83 236 -176 516 -108 324 -171 501
-176 490 -3 -10 -27 -250 -53 -533 -26 -283 -49 -517 -51 -519 -2 -2 -281 219
-621 491 -340 271 -624 498 -632 503 -14 8 121 -160 225 -280 90 -104 214
-259 214 -267 0 -5 -17 0 -38 11 -41 21 -180 75 -282 110 -36 13 -72 26 -81
31 -9 5 -34 12 -55 16 -22 3 -47 11 -56 16 -10 5 -37 13 -60 18 -24 5 -70 16
-103 25 -127 33 -308 66 -476 86 -306 38 -755 29 -1039 -21 -190 -33 -340 -64
-390 -80 -14 -4 -52 -16 -85 -25 -220 -62 -456 -155 -685 -270 -101 -50 -278
-152 -301 -171 -8 -8 -19 -14 -22 -14 -21 0 -305 -208 -448 -329 -70 -58 -245
-225 -269 -256 -19 -24 -20 -24 121 70 138 92 141 93 164 105 11 5 43 23 70
39 66 39 373 191 386 191 5 0 17 4 27 10 93 51 472 172 654 210 372 76 462 85
853 85 344 -1 518 -13 665 -45 87 -20 205 -43 240 -48 19 -2 40 -8 45 -12 6
-5 31 -11 58 -15 26 -4 50 -11 53 -16 3 -5 14 -9 24 -9 23 0 192 -56 332 -109
181 -69 477 -213 598 -290 113 -73 260 -170 288 -191 l32 -24 -35 -17 c-19 -9
-66 -29 -105 -45 -38 -15 -70 -32 -70 -37 0 -6 26 -7 68 -3 37 3 111 6 165 7
l99 2 46 -37 c26 -20 78 -64 117 -99 l69 -64 -17 -27 c-10 -15 -46 -62 -80
-105 -34 -43 -125 -160 -202 -260 -77 -101 -166 -217 -198 -258 -32 -41 -57
-76 -55 -78 4 -4 114 78 475 358 134 103 246 187 251 187 8 0 119 -119 176
-189 l29 -36 -6 -167 c-3 -93 -3 -168 1 -168 4 0 24 43 46 95 21 53 43 98 48
101 5 3 16 -2 24 -12 22 -28 167 -246 180 -269 6 -11 22 -39 37 -62 29 -46
174 -330 196 -384 7 -19 20 -47 27 -64 7 -16 22 -55 34 -85 11 -30 25 -64 30
-75 38 -84 123 -377 159 -555 37 -182 41 -202 59 -330 25 -183 25 -780 -1
-965 -79 -567 -234 -1019 -522 -1524 -11 -19 -52 -83 -91 -143 -40 -59 -69
-108 -64 -108 4 0 47 42 96 93 350 364 633 808 812 1272 63 165 134 390 166
535 76 333 91 483 90 880 0 301 -3 364 -22 495 -21 145 -49 301 -71 395 -38
161 -128 444 -171 535 -30 65 -67 165 -61 165 8 0 88 -65 271 -219 194 -163
284 -236 275 -221 -5 8 -232 293 -503 633 -272 340 -493 619 -491 621 2 2 229
27 504 55 275 29 507 55 515 58 8 3 -207 80 -479 171 -271 92 -492 172 -491
177 1 6 399 467 884 1025 947 1090 958 1103 846 997z"/>
<path d="M5680 6807 c15 -52 30 -98 33 -104 4 -5 42 -13 86 -16 123 -10 293
-73 406 -151 l50 -34 55 51 c30 28 72 67 93 87 l38 37 -68 46 c-38 25 -81 49
-96 52 -15 4 -27 11 -27 16 0 5 -8 9 -18 9 -10 0 -27 6 -38 14 -11 8 -38 18
-60 21 -21 4 -44 11 -49 15 -23 19 -231 50 -329 50 l-104 0 28 -93z"/>
<path d="M5380 6841 c-71 -24 -194 -82 -243 -115 -21 -14 -40 -26 -43 -26 -19
0 -195 -155 -183 -162 2 -2 13 -11 25 -21 23 -19 40 -15 99 23 17 10 46 27 65
36 19 10 42 23 50 29 18 14 202 73 253 82 36 6 37 6 37 52 0 25 3 63 6 84 7
42 8 42 -66 18z"/>
<path d="M6617 6322 l-89 -89 16 -29 c25 -44 40 -68 48 -74 3 -3 10 -18 13
-33 4 -15 11 -27 15 -27 5 0 12 -15 15 -32 4 -18 11 -38 15 -43 5 -6 14 -33
21 -60 6 -28 15 -54 19 -60 4 -5 10 -35 14 -65 15 -127 8 -117 105 -146 47
-14 92 -27 100 -30 12 -4 13 20 9 146 -3 83 -10 156 -16 163 -5 6 -13 38 -16
70 -4 31 -12 57 -17 57 -5 0 -9 9 -9 21 0 11 -9 41 -21 67 -11 26 -27 63 -35
82 -17 41 -53 110 -66 124 -5 6 -14 19 -21 29 -11 16 -21 9 -100 -71z"/>
<path d="M6763 5423 l-52 -4 -11 -52 c-14 -68 -56 -193 -80 -237 -10 -19 -25
-49 -33 -66 -8 -17 -31 -54 -50 -81 l-36 -51 25 -23 24 -22 38 30 c20 16 51
50 69 74 18 24 41 55 51 69 11 14 34 52 52 85 18 33 36 65 40 70 11 15 67 157
74 188 7 30 15 29 -111 20z"/>
</g>
</svg>
